<svg width="997" height="810" fill="none" xmlns="http://www.w3.org/2000/svg"><g filter="url('#filter0_d_309_13541')"><g filter="url('#filter1_d_309_13541')"><path d="M185 39c0-20.987 17.013-38 38-38h660c20.987 0 38 17.013 38 38v380c0 20.987-17.013 38-38 38H223c-20.987 0-38-17.013-38-38V39Z" fill="#000"/></g><mask id="mask0_309_13541" style="mask-type:alpha" maskUnits="userSpaceOnUse" x="74" y="118" width="848" height="592"><ellipse cx="498.216" cy="414.33" rx="435" ry="278" transform="rotate(17.395 498.216 414.33)" fill="#D6EBFF"/></mask><g mask="url('#mask0_309_13541')"><path d="M185 39c0-20.987 17.013-38 38-38h660c20.987 0 38 17.013 38 38v380c0 20.987-17.013 38-38 38H223c-20.987 0-38-17.013-38-38V39Z" fill="#FF5151"/></g></g><defs><filter id="filter0_d_309_13541" x="181" y="1" width="744" height="464" filterUnits="userSpaceOnUse" color-interpolation-filters="sRGB"><feFlood flood-opacity="0" result="BackgroundImageFix"/><feColorMatrix in="SourceAlpha" values="0 0 0 0 0 0 0 0 0 0 0 0 0 0 0 0 0 0 127 0" result="hardAlpha"/><feOffset dy="4"/><feGaussianBlur stdDeviation="2"/><feComposite in2="hardAlpha" operator="out"/><feColorMatrix values="0 0 0 0 0 0 0 0 0 0 0 0 0 0 0 0 0 0 0.25 0"/><feBlend in2="BackgroundImageFix" result="effect1_dropShadow_309_13541"/><feBlend in="SourceGraphic" in2="effect1_dropShadow_309_13541" result="shape"/></filter><filter id="filter1_d_309_13541" x="181" y="0" width="758" height="478" filterUnits="userSpaceOnUse" color-interpolation-filters="sRGB"><feFlood flood-opacity="0" result="BackgroundImageFix"/><feColorMatrix in="SourceAlpha" values="0 0 0 0 0 0 0 0 0 0 0 0 0 0 0 0 0 0 127 0" result="hardAlpha"/><feOffset dx="7" dy="10"/><feGaussianBlur stdDeviation="5.5"/><feComposite in2="hardAlpha" operator="out"/><feColorMatrix values="0 0 0 0 0 0 0 0 0 0 0 0 0 0 0 0 0 0 0.25 0"/><feBlend in2="BackgroundImageFix" result="effect1_dropShadow_309_13541"/><feBlend in="SourceGraphic" in2="effect1_dropShadow_309_13541" result="shape"/></filter></defs></svg>