<svg width="581" height="34" fill="none" xmlns="http://www.w3.org/2000/svg"><path d="M2.435 4.377a2.172 2.172 0 1 1 0-4.313h14.822a4.216 4.216 0 0 1 4.312 4.313v8.274a6.102 6.102 0 0 0 0 8.37v8.274a4.217 4.217 0 0 1-4.312 4.312H2.435a2.172 2.172 0 1 1 0-4.312h14.822v-7.156c0-2.428-.927-3.195-2.14-3.195H6.652a2.172 2.172 0 0 1 0-4.313h8.465c1.213 0 2.14-.735 2.14-3.194v-7.06H2.435ZM48.306 29.295v-8.722a1.917 1.917 0 0 1 2.172-2.14 1.883 1.883 0 0 1 2.14 2.14v10.862a1.981 1.981 0 0 1-2.14 2.172H33.484a2.172 2.172 0 1 1 0-4.312h6.389V4.377h-6.39a2.172 2.172 0 1 1 0-4.313h10.638v29.23h4.184ZM77.182 18.433V5.973a2.173 2.173 0 0 1 4.344 0v12.46a2.172 2.172 0 0 1 0 4.313v8.785a2.172 2.172 0 1 1-4.344 0v-8.785H64.405V2.3a1.95 1.95 0 0 1 2.14-2.14 1.98 1.98 0 0 1 2.172 2.14v16.133h8.465ZM110.402 29.295v-8.722a1.915 1.915 0 0 1 2.172-2.14 1.883 1.883 0 0 1 2.14 2.14v10.862a1.978 1.978 0 0 1-1.285 2.057c-.273.101-.565.14-.855.115H95.548a2.173 2.173 0 0 1 0-4.312h6.389V4.377h-6.389a2.172 2.172 0 0 1 0-4.313h10.669v29.23h4.185ZM164.099 14.663h7.922a4.442 4.442 0 0 1 3.45 1.214 4.247 4.247 0 0 1 1.341 3.674v9.232a4.633 4.633 0 0 1-1.022 3.355 4.186 4.186 0 0 1-3.769 1.47h-9.583a6.39 6.39 0 0 1-2.843-.767l-1.629-.735c-1.182-.511-2.46-.927-2.46-2.428a2.174 2.174 0 0 1 2.077-2.14c.475.01.942.12 1.373.319l1.278.575a7.413 7.413 0 0 0 2.3.863h9.966V18.976h-12.777V.064h14.789a2.174 2.174 0 0 1 2.436 2.156 2.177 2.177 0 0 1-1.527 2.074c-.294.092-.603.12-.909.083h-10.541l.128 10.286ZM203.548 15.398h-14.821a2.205 2.205 0 0 1-2.172-2.14V2.204a2.201 2.201 0 0 1 2.172-2.14h16.962a2.207 2.207 0 0 1 2.172 2.14v29.231a2.107 2.107 0 0 1-1.331 2.025 2.104 2.104 0 0 1-.841.147h-2.141a2.104 2.104 0 0 1-2.024-1.33 2.107 2.107 0 0 1-.148-.842 2.07 2.07 0 0 1 2.172-2.14V15.398Zm0-4.313V4.377h-12.777v6.708h12.777ZM221.916 29.295h14.821a2.177 2.177 0 0 1 1.703.53 2.172 2.172 0 0 1-1.703 3.782h-19.166V19.551a4.315 4.315 0 0 1 4.856-4.888h12.138V4.377h-14.853A2.174 2.174 0 0 1 218.348.78a2.174 2.174 0 0 1 1.364-.716h14.31a4.7 4.7 0 0 1 3.514 1.182 4.599 4.599 0 0 1 1.341 3.865v8.818a4.442 4.442 0 0 1-2.87 4.801 4.44 4.44 0 0 1-1.985.246h-12.138l.032 10.319ZM252.965 18.433h14.406c2.14 0 2.587.926 2.587 2.875v9.584c0 2.012-.862 2.715-2.811 2.715h-15.716c-2.012 0-2.779-.734-2.779-2.715V2.14c0-.99.32-2.14 1.853-2.14h2.587a2.11 2.11 0 0 1 2.013 2.14 2.044 2.044 0 0 1-2.14 2.173v14.12Zm0 4.313v6.644h12.777v-6.644h-12.777ZM319.31 14.663h7.954a4.473 4.473 0 0 1 3.45 1.214 4.324 4.324 0 0 1 1.31 3.674v9.233a4.63 4.63 0 0 1-1.023 3.354 4.144 4.144 0 0 1-3.737 1.47h-9.583a6.39 6.39 0 0 1-2.843-.767l-1.629-.735c-1.182-.511-2.459-.927-2.459-2.428a2.137 2.137 0 0 1 2.044-2.14c.486.007.964.116 1.405.32l1.278.574a7.41 7.41 0 0 0 2.3.863h10.062V18.976h-12.777V.064h14.885a2.174 2.174 0 0 1 0 4.313h-10.573l-.064 10.286ZM343.81 4.377a2.171 2.171 0 0 1 0-4.313h14.854a4.187 4.187 0 0 1 4.312 4.313v8.274a6.102 6.102 0 0 0 0 8.37v8.273a4.186 4.186 0 0 1-4.28 4.313H343.81a2.17 2.17 0 0 1-1.363-3.596 2.172 2.172 0 0 1 1.363-.716h14.854v-7.156c0-2.428-.959-3.195-2.173-3.195h-8.464a2.173 2.173 0 0 1 0-4.313h8.56c1.214 0 2.172-.735 2.172-3.194v-7.06H343.81ZM381.407 14.663h7.954a4.468 4.468 0 0 1 3.45 1.214 4.346 4.346 0 0 1 1.341 3.674v9.232a4.66 4.66 0 0 1-1.054 3.355 4.156 4.156 0 0 1-3.737 1.47h-9.583a6.387 6.387 0 0 1-2.843-.767l-1.661-.735c-1.15-.511-2.428-.927-2.428-2.428a2.143 2.143 0 0 1 2.045-2.14c.485.007.964.116 1.405.32l1.278.574c.713.414 1.49.705 2.3.863h9.934V18.976h-12.777V.064h14.885a2.176 2.176 0 0 1 2.244 1.264 2.175 2.175 0 0 1-1.335 2.966c-.294.092-.604.12-.909.083h-10.573l.064 10.286ZM418.717.064a2.013 2.013 0 0 1 2.14 2.14v12.46a4.44 4.44 0 0 1 3.195 1.213 4.256 4.256 0 0 1 1.181 3.195v10.255a4.024 4.024 0 0 1-4.344 4.312h-12.777a4.027 4.027 0 0 1-4.312-4.313V19.072a4.203 4.203 0 0 1 1.15-3.195 4.442 4.442 0 0 1 3.194-1.214V2.204a2.01 2.01 0 0 1 2.14-2.14h8.433Zm2.14 29.23V18.977H408.08v10.319h12.777Zm-4.312-14.63V4.376h-4.057v10.286h4.057ZM482.955 15.398h-14.822a2.205 2.205 0 0 1-2.172-2.14V2.204a2.201 2.201 0 0 1 2.172-2.14h16.994a2.172 2.172 0 0 1 2.14 2.14v29.231a2.105 2.105 0 0 1-1.309 2.015 2.101 2.101 0 0 1-.831.157h-2.172a2.11 2.11 0 0 1-2.14-2.172 2.05 2.05 0 0 1 .596-1.544 2.038 2.038 0 0 1 1.544-.596V15.398Zm0-4.313V4.377h-12.778v6.708h12.778ZM501.322 4.377a2.173 2.173 0 0 1-2.141 2.14 2.206 2.206 0 0 1-2.172-2.14V2.204a2.173 2.173 0 0 1 2.172-2.14h19.166v12.49c0 1.502 0 1.694-1.15 2.716l-6.037 5.24c-1.118.99-1.214 1.086-1.214 2.555v8.37a1.879 1.879 0 0 1-.525 1.647 1.886 1.886 0 0 1-1.647.525c-1.533 0-2.14-.766-2.14-2.172V21.052c0-1.405 0-1.565 1.118-2.491l5.941-5.144c1.438-1.246 1.342-1.214 1.342-3.194V4.377h-12.713ZM545.052 15.398H530.23a2.205 2.205 0 0 1-2.172-2.14V2.204a2.205 2.205 0 0 1 2.172-2.14h16.994a2.17 2.17 0 0 1 2.14 2.14v29.231a2.104 2.104 0 0 1-2.14 2.172h-2.172a2.11 2.11 0 0 1-2.14-2.172 2.035 2.035 0 0 1 .596-1.544 2.047 2.047 0 0 1 1.544-.596V15.398Zm0-4.313V4.377h-12.777v6.708h12.777ZM561.279 4.377a2.176 2.176 0 0 1-2.244-1.265A2.176 2.176 0 0 1 560.37.146c.294-.091.604-.12.909-.082H576.1a4.217 4.217 0 0 1 4.313 4.313v8.274a6.006 6.006 0 0 0 0 8.37v8.274a4.221 4.221 0 0 1-2.647 4.01 4.217 4.217 0 0 1-1.666.302h-14.821a2.176 2.176 0 0 1-2.244-1.264 2.175 2.175 0 0 1 1.335-2.966c.294-.092.604-.12.909-.082H576.1v-7.156c0-2.428-.958-3.195-2.172-3.195h-8.433a2.168 2.168 0 0 1-2.243-1.264 2.16 2.16 0 0 1 0-1.784 2.171 2.171 0 0 1 2.243-1.265h8.305c1.214 0 2.173-.735 2.173-3.194v-7.06h-14.694Z" fill="#fff"/></svg>