<svg width="142" height="96" fill="none" xmlns="http://www.w3.org/2000/svg"><path d="M36.311 85.215a16.875 16.875 0 0 1-1.275-6.454l.197-1.776h34.664v18.668h-17.99a16.87 16.87 0 0 1-15.596-10.438ZM35.004 51.14h34.765v19.051H35.004v-19.05ZM69.674 18.918H35.036v-1.795A16.874 16.874 0 0 1 51.781.25h17.893v18.668ZM76.338.25h47.664a16.87 16.87 0 0 1 16.809 16.873v1.795h-40.632v76.67h-23.84V.25ZM35.004 25.488h34.765v19.05H35.004v-19.05Z" fill="#fff" stroke="#000" stroke-width=".5"/><path d="M106.812 25.488h34.062v19.05h-34.062v-19.05ZM106.812 51.14h34.062v19.051h-34.062v-19.05ZM140.874 78.588a16.858 16.858 0 0 1-4.93 11.952 16.871 16.871 0 0 1-11.941 4.953h-17.191v-18.7h34.062v1.795Z" fill="#fff" stroke="#000" stroke-width=".5"/><path d="M15.844 31.978 0 47.855l15.844 15.878V31.978Z" fill="#fff"/></svg>