<svg width="581" height="34" viewBox="0 0 581 34" fill="none" xmlns="http://www.w3.org/2000/svg">
<path d="M2.43506 4.37657C2.12988 4.41379 1.82028 4.38575 1.52672 4.29439C1.23317 4.20303 0.962318 4.05044 0.732142 3.84661C0.501966 3.64277 0.31767 3.39237 0.191456 3.112C0.0652415 2.83163 0 2.52762 0 2.22015C0 1.91267 0.0652415 1.60875 0.191456 1.32839C0.31767 1.04802 0.501966 0.797616 0.732142 0.593783C0.962318 0.38995 1.23317 0.237363 1.52672 0.146002C1.82028 0.0546404 2.12988 0.026598 2.43506 0.0638159H17.2566C17.8265 0.0507085 18.3932 0.153263 18.9223 0.365359C19.4514 0.577454 19.932 0.894657 20.3351 1.29777C20.7382 1.70089 21.0553 2.18156 21.2674 2.71073C21.4795 3.2399 21.582 3.80663 21.5689 4.37657V12.6506C20.502 13.7828 19.9078 15.2798 19.9078 16.8356C19.9078 18.3913 20.502 19.8883 21.5689 21.0205V29.2946C21.582 29.8645 21.4795 30.4312 21.2674 30.9604C21.0553 31.4896 20.7382 31.9703 20.3351 32.3734C19.932 32.7765 19.4514 33.0937 18.9223 33.3058C18.3932 33.5179 17.8265 33.6204 17.2566 33.6073H2.43506C2.12988 33.6445 1.82028 33.6165 1.52672 33.5251C1.23317 33.4338 0.962318 33.2812 0.732142 33.0774C0.501966 32.8735 0.31767 32.6231 0.191456 32.3428C0.0652415 32.0624 0 31.7585 0 31.451C0 31.1435 0.0652415 30.8395 0.191456 30.5591C0.31767 30.2788 0.501966 30.0284 0.732142 29.8245C0.962318 29.6207 1.23317 29.4681 1.52672 29.3768C1.82028 29.2854 2.12988 29.2574 2.43506 29.2946H17.2566V22.1387C17.2566 19.7107 16.3303 18.944 15.1165 18.944H6.65152C6.12487 18.8798 5.63995 18.625 5.28823 18.2278C4.93651 17.8305 4.74233 17.3182 4.74233 16.7876C4.74233 16.257 4.93651 15.7448 5.28823 15.3476C5.63995 14.9503 6.12487 14.6955 6.65152 14.6313H15.1165C16.3303 14.6313 17.2566 13.8965 17.2566 11.4367V4.37657H2.43506Z" fill="white"/>
<path d="M48.3055 29.2946V20.5733C48.2681 20.2805 48.2988 19.983 48.3952 19.7041C48.4916 19.4251 48.6512 19.1722 48.8614 18.965C49.0716 18.7578 49.3269 18.6021 49.6072 18.5098C49.8875 18.4175 50.1854 18.3911 50.4776 18.4329C50.7686 18.3898 51.0656 18.4155 51.3449 18.5079C51.6242 18.6002 51.8781 18.7566 52.0861 18.9646C52.2941 19.1726 52.4505 19.4265 52.5428 19.7058C52.6352 19.9852 52.6608 20.2823 52.6177 20.5733V31.435C52.647 31.7247 52.612 32.0174 52.5153 32.2921C52.4185 32.5667 52.2624 32.8166 52.058 33.024C51.8537 33.2315 51.6061 33.3914 51.3329 33.4922C51.0597 33.593 50.7677 33.6323 50.4776 33.6073H33.4839C33.1787 33.6445 32.8691 33.6165 32.5755 33.5251C32.282 33.4338 32.0111 33.2812 31.781 33.0774C31.5508 32.8735 31.3665 32.6231 31.2403 32.3428C31.1141 32.0624 31.0488 31.7585 31.0488 31.451C31.0488 31.1435 31.1141 30.8395 31.2403 30.5591C31.3665 30.2788 31.5508 30.0284 31.781 29.8245C32.0111 29.6207 32.282 29.4681 32.5755 29.3768C32.8691 29.2854 33.1787 29.2574 33.4839 29.2946H39.8725V4.37657H33.4839C33.1787 4.41379 32.8691 4.38575 32.5755 4.29439C32.282 4.20303 32.0111 4.05044 31.781 3.84661C31.5508 3.64277 31.3665 3.39237 31.2403 3.112C31.1141 2.83163 31.0488 2.52762 31.0488 2.22015C31.0488 1.91267 31.1141 1.60875 31.2403 1.32839C31.3665 1.04802 31.5508 0.797616 31.781 0.593783C32.0111 0.38995 32.282 0.237363 32.5755 0.146002C32.8691 0.0546404 33.1787 0.026598 33.4839 0.0638159H44.1209V29.2946H48.3055Z" fill="white"/>
<path d="M77.1818 18.4329V5.97392C77.1818 5.39778 77.4107 4.84523 77.818 4.43784C78.2254 4.03044 78.7779 3.8016 79.3539 3.8016C79.93 3.8016 80.4825 4.03044 80.8898 4.43784C81.2972 4.84523 81.526 5.39778 81.526 5.97392V18.4329C82.0527 18.4971 82.5376 18.7519 82.8893 19.1492C83.2411 19.5464 83.4352 20.0586 83.4352 20.5892C83.4352 21.1198 83.2411 21.6321 82.8893 22.0294C82.5376 22.4266 82.0527 22.6814 81.526 22.7457V31.5309C81.526 32.107 81.2972 32.6596 80.8898 33.067C80.4825 33.4743 79.93 33.7032 79.3539 33.7032C78.7779 33.7032 78.2254 33.4743 77.818 33.067C77.4107 32.6596 77.1818 32.107 77.1818 31.5309V22.7457H64.4046V2.30013C64.3745 2.01165 64.4091 1.72005 64.506 1.44668C64.603 1.17331 64.7597 0.925069 64.9647 0.719978C65.1698 0.514887 65.4181 0.358104 65.6914 0.26118C65.9648 0.164256 66.2563 0.129597 66.5447 0.159691C66.8345 0.130438 67.1271 0.165401 67.4017 0.262155C67.6764 0.358909 67.9263 0.515103 68.1337 0.71949C68.3411 0.923877 68.5009 1.17143 68.6017 1.44464C68.7025 1.71784 68.7419 2.00999 68.7169 2.30013V18.4329H77.1818Z" fill="white"/>
<path d="M110.402 29.2946V20.5734C110.364 20.2806 110.395 19.9831 110.492 19.7041C110.588 19.4252 110.748 19.1722 110.958 18.965C111.168 18.7579 111.423 18.6021 111.704 18.5098C111.984 18.4175 112.282 18.3912 112.574 18.4329C112.865 18.3899 113.162 18.4155 113.441 18.5079C113.721 18.6002 113.974 18.7566 114.182 18.9646C114.39 19.1727 114.547 19.4265 114.639 19.7059C114.732 19.9852 114.757 20.2823 114.714 20.5734V31.435C114.743 31.7248 114.708 32.0174 114.612 32.2921C114.515 32.5668 114.359 32.8166 114.154 33.0241C113.95 33.2315 113.702 33.3914 113.429 33.4922C113.156 33.593 112.864 33.6323 112.574 33.6074H95.5484C95.0217 33.5431 94.5368 33.2883 94.1851 32.8911C93.8333 32.4938 93.6392 31.9816 93.6392 31.451C93.6392 30.9204 93.8333 30.4081 94.1851 30.0109C94.5368 29.6136 95.0217 29.3588 95.5484 29.2946H101.937V4.3766H95.5484C95.0217 4.31237 94.5368 4.05758 94.1851 3.66033C93.8333 3.26307 93.6392 2.75078 93.6392 2.22017C93.6392 1.68957 93.8333 1.17737 94.1851 0.780117C94.5368 0.382865 95.0217 0.12807 95.5484 0.0638428H106.217V29.2946H110.402Z" fill="white"/>
<path d="M164.099 14.6633H172.021C172.649 14.609 173.282 14.6892 173.877 14.8985C174.471 15.1078 175.015 15.4415 175.471 15.8772C175.972 16.3373 176.356 16.9111 176.589 17.5505C176.823 18.1898 176.899 18.876 176.812 19.551V28.7834C176.924 29.9923 176.557 31.1969 175.79 32.1378C175.337 32.6815 174.754 33.1014 174.095 33.3584C173.436 33.6154 172.722 33.701 172.021 33.6073H162.438C161.444 33.5766 160.47 33.3141 159.595 32.8406L157.966 32.1059C156.784 31.5947 155.506 31.1794 155.506 29.6779C155.514 29.1235 155.733 28.5931 156.119 28.1952C156.505 27.7972 157.029 27.562 157.583 27.5376C158.058 27.5483 158.525 27.6571 158.956 27.8571L160.234 28.4321C160.947 28.8455 161.725 29.137 162.534 29.2946H172.5V18.976H159.723V0.0638159H174.512C174.818 0.026598 175.127 0.0546404 175.421 0.146002C175.714 0.237363 175.985 0.38995 176.215 0.593783C176.446 0.797616 176.63 1.04802 176.756 1.32839C176.882 1.60875 176.948 1.91267 176.948 2.22015C176.948 2.52762 176.882 2.83163 176.756 3.112C176.63 3.39237 176.446 3.64277 176.215 3.84661C175.985 4.05044 175.714 4.20303 175.421 4.29439C175.127 4.38575 174.818 4.41379 174.512 4.37657H163.971L164.099 14.6633Z" fill="white"/>
<path d="M203.548 15.398H188.727C188.159 15.39 187.616 15.1629 187.211 14.7641C186.806 14.3653 186.571 13.8256 186.555 13.2576V2.20428C186.571 1.6363 186.806 1.09654 187.211 0.697736C187.616 0.29893 188.159 0.0718407 188.727 0.0638428H205.689C206.257 0.0718407 206.8 0.29893 207.204 0.697736C207.609 1.09654 207.844 1.6363 207.861 2.20428V31.435C207.87 31.7227 207.819 32.0091 207.713 32.2767C207.607 32.5442 207.448 32.7873 207.244 32.9908C207.041 33.1943 206.798 33.354 206.53 33.46C206.263 33.5661 205.976 33.6162 205.689 33.6073H203.548C203.261 33.6162 202.974 33.5661 202.707 33.46C202.439 33.354 202.196 33.1943 201.993 32.9908C201.789 32.7873 201.63 32.5442 201.524 32.2767C201.418 32.0091 201.367 31.7227 201.376 31.435C201.367 31.1487 201.417 30.8637 201.524 30.5978C201.63 30.3318 201.79 30.0907 201.994 29.8897C202.198 29.6887 202.442 29.532 202.709 29.4296C202.977 29.3272 203.262 29.2812 203.548 29.2946V15.398ZM203.548 11.0853V4.3766H190.771V11.0853H203.548Z" fill="white"/>
<path d="M221.916 29.2946H236.737C237.042 29.2574 237.352 29.2855 237.646 29.3768C237.939 29.4682 238.21 29.6208 238.44 29.8246C238.67 30.0284 238.855 30.2788 238.981 30.5592C239.107 30.8396 239.172 31.1436 239.172 31.4511C239.172 31.7585 239.107 32.0625 238.981 32.3428C238.855 32.6232 238.67 32.8736 238.44 33.0774C238.21 33.2813 237.939 33.4338 237.646 33.5252C237.352 33.6166 237.042 33.6446 236.737 33.6074H217.571V19.5511C217.476 18.8899 217.536 18.2156 217.746 17.5813C217.955 16.9471 218.31 16.3702 218.78 15.8963C219.251 15.4224 219.826 15.0643 220.458 14.8503C221.091 14.6363 221.765 14.5724 222.427 14.6633H234.565V4.37662H219.712C219.185 4.31239 218.7 4.0576 218.348 3.66035C217.997 3.26309 217.802 2.7508 217.802 2.22019C217.802 1.68959 217.997 1.17739 218.348 0.780137C218.7 0.382884 219.185 0.128089 219.712 0.0638624H234.022C234.657 0.0120867 235.296 0.0901472 235.901 0.293359C236.505 0.49657 237.061 0.820664 237.536 1.24586C238.043 1.74297 238.427 2.35058 238.66 3.02119C238.893 3.69179 238.967 4.40717 238.877 5.11132V13.9285C238.973 14.597 238.916 15.2786 238.709 15.9214C238.501 16.5642 238.15 17.1513 237.682 17.638C237.214 18.1247 236.641 18.4982 236.007 18.7301C235.373 18.962 234.694 19.0461 234.022 18.9761H221.884L221.916 29.2946Z" fill="white"/>
<path d="M252.965 18.4329H267.371C269.511 18.4329 269.958 19.3593 269.958 21.3081V30.8919C269.958 32.9045 269.096 33.6074 267.147 33.6074H251.431C249.419 33.6074 248.652 32.8726 248.652 30.8919V2.14034C248.652 1.15001 248.972 0 250.505 0H253.092C253.64 0.0248623 254.157 0.262244 254.533 0.661874C254.908 1.0615 255.114 1.59186 255.105 2.14034C255.123 2.42765 255.081 2.71558 254.98 2.9853C254.879 3.25503 254.723 3.5005 254.521 3.70558C254.319 3.91065 254.076 4.07076 253.808 4.17539C253.539 4.28002 253.252 4.32674 252.965 4.31266V18.4329ZM252.965 22.7457V29.3904H265.742V22.7457H252.965Z" fill="white"/>
<path d="M319.31 14.6633H327.264C327.892 14.6111 328.524 14.6922 329.119 14.9015C329.713 15.1107 330.257 15.4432 330.714 15.8773C331.205 16.3437 331.58 16.9193 331.808 17.5576C332.035 18.1959 332.109 18.8788 332.024 19.5511V28.7835C332.136 29.9923 331.769 31.1969 331.001 32.1379C330.554 32.6789 329.976 33.0975 329.322 33.3545C328.669 33.6115 327.96 33.6985 327.264 33.6074H317.681C316.687 33.5767 315.713 33.3142 314.838 32.8407L313.209 32.1059C312.027 31.5947 310.75 31.1794 310.75 29.6779C310.749 29.1265 310.961 28.5962 311.342 28.1974C311.723 27.7987 312.243 27.5623 312.794 27.5376C313.28 27.5449 313.758 27.6537 314.199 27.8571L315.477 28.4321C316.19 28.8456 316.968 29.137 317.777 29.2946H327.839V18.976H315.062V0.0638428H329.947C330.474 0.12807 330.959 0.382865 331.311 0.780117C331.662 1.17737 331.857 1.68957 331.857 2.22017C331.857 2.75078 331.662 3.26307 331.311 3.66033C330.959 4.05758 330.474 4.31237 329.947 4.3766H319.374L319.31 14.6633Z" fill="white"/>
<path d="M343.81 4.37654C343.283 4.31231 342.799 4.05752 342.447 3.66026C342.095 3.26301 341.901 2.75071 341.901 2.22011C341.901 1.68951 342.095 1.17731 342.447 0.780055C342.799 0.382803 343.283 0.128008 343.81 0.0637809H358.664C359.235 0.0460577 359.803 0.145502 360.335 0.355965C360.866 0.566427 361.348 0.883439 361.752 1.2875C362.156 1.69156 362.473 2.17407 362.684 2.70533C362.894 3.23659 362.994 3.80538 362.976 4.37654V12.6506C361.909 13.7828 361.315 15.2798 361.315 16.8355C361.315 18.3913 361.909 19.8883 362.976 21.0205V29.2945C362.993 29.8629 362.895 30.429 362.686 30.958C362.478 31.4871 362.164 31.9681 361.763 32.3717C361.363 32.7753 360.884 33.093 360.357 33.3054C359.829 33.5179 359.264 33.6206 358.696 33.6073H343.81C343.283 33.5431 342.799 33.2883 342.447 32.891C342.095 32.4938 341.901 31.9816 341.901 31.451C341.901 30.9204 342.095 30.4081 342.447 30.0108C342.799 29.6136 343.283 29.3588 343.81 29.2945H358.664V22.1386C358.664 19.7107 357.705 18.944 356.491 18.944H348.027C347.5 18.8798 347.015 18.625 346.663 18.2277C346.312 17.8305 346.117 17.3182 346.117 16.7876C346.117 16.257 346.312 15.7448 346.663 15.3475C347.015 14.9503 347.5 14.6955 348.027 14.6312H356.587C357.801 14.6312 358.759 13.8965 358.759 11.4366V4.37654H343.81Z" fill="white"/>
<path d="M381.407 14.6633H389.361C389.989 14.6111 390.621 14.6922 391.215 14.9014C391.81 15.1106 392.354 15.4432 392.811 15.8772C393.306 16.3421 393.685 16.9166 393.918 17.5546C394.151 18.1926 394.231 18.8764 394.152 19.551V28.7834C394.252 29.9963 393.874 31.2001 393.098 32.1378C392.65 32.6789 392.072 33.0974 391.419 33.3544C390.765 33.6114 390.057 33.6984 389.361 33.6073H379.778C378.783 33.5766 377.81 33.3141 376.935 32.8407L375.274 32.1059C374.124 31.5947 372.846 31.1794 372.846 29.6779C372.846 29.1265 373.058 28.5962 373.439 28.1974C373.82 27.7986 374.34 27.5623 374.891 27.5376C375.376 27.5449 375.855 27.6537 376.296 27.8571L377.574 28.4321C378.287 28.8455 379.064 29.137 379.874 29.2946H389.808V18.976H377.031V0.0638159H391.916C392.221 0.026598 392.531 0.0546404 392.825 0.146002C393.118 0.237363 393.389 0.38995 393.619 0.593783C393.849 0.797616 394.034 1.04802 394.16 1.32839C394.286 1.60875 394.351 1.91267 394.351 2.22015C394.351 2.52762 394.286 2.83164 394.16 3.112C394.034 3.39237 393.849 3.64277 393.619 3.84661C393.389 4.05044 393.118 4.20303 392.825 4.29439C392.531 4.38575 392.221 4.41379 391.916 4.37657H381.343L381.407 14.6633Z" fill="white"/>
<path d="M418.717 0.0637884C419.003 0.0449753 419.29 0.0874723 419.558 0.188383C419.826 0.289294 420.07 0.446301 420.272 0.648935C420.475 0.85157 420.632 1.09514 420.733 1.36336C420.834 1.63157 420.876 1.91827 420.857 2.20423V14.6632C421.444 14.6445 422.028 14.7422 422.576 14.9505C423.124 15.1589 423.626 15.4739 424.052 15.8772C424.458 16.2993 424.773 16.801 424.977 17.3508C425.18 17.9006 425.267 18.4866 425.233 19.0718V29.3265C425.277 29.9067 425.194 30.4895 424.991 31.0347C424.787 31.5798 424.468 32.0744 424.055 32.4844C423.642 32.8943 423.146 33.2098 422.599 33.4092C422.052 33.6085 421.469 33.6871 420.889 33.6393H408.112C407.535 33.6822 406.955 33.6001 406.412 33.3985C405.87 33.197 405.377 32.8808 404.967 32.4714C404.558 32.062 404.242 31.5691 404.04 31.0264C403.839 30.4836 403.757 29.9039 403.8 29.3265V19.0718C403.759 18.4887 403.841 17.9036 404.039 17.3536C404.237 16.8037 404.547 16.3009 404.95 15.8772C405.376 15.4739 405.877 15.1589 406.425 14.9505C406.974 14.7422 407.558 14.6445 408.144 14.6632V2.20423C408.125 1.91827 408.168 1.63157 408.268 1.36336C408.369 1.09514 408.526 0.85157 408.729 0.648935C408.932 0.446301 409.175 0.289294 409.443 0.188383C409.712 0.0874723 409.998 0.0449753 410.284 0.0637884H418.717ZM420.857 29.2945V18.976H408.08V29.2945H420.857ZM416.545 14.6632V4.37654H412.488V14.6632H416.545Z" fill="white"/>
<path d="M482.955 15.398H468.133C467.565 15.39 467.022 15.1629 466.617 14.7641C466.212 14.3653 465.977 13.8256 465.961 13.2576V2.20428C465.977 1.6363 466.212 1.09654 466.617 0.697736C467.022 0.29893 467.565 0.0718407 468.133 0.0638428H485.127C485.692 0.0720937 486.231 0.300254 486.631 0.699881C487.031 1.09951 487.259 1.63918 487.267 2.20428V31.435C487.276 31.72 487.226 32.0037 487.122 32.2691C487.018 32.5345 486.861 32.776 486.661 32.979C486.461 33.1821 486.222 33.3424 485.958 33.4504C485.695 33.5584 485.412 33.6118 485.127 33.6073H482.955C482.67 33.6118 482.387 33.5584 482.123 33.4504C481.859 33.3424 481.62 33.1821 481.42 32.979C481.22 32.776 481.063 32.5345 480.959 32.2691C480.855 32.0037 480.806 31.72 480.815 31.435C480.801 31.1503 480.847 30.8659 480.949 30.6C481.052 30.3341 481.209 30.0926 481.411 29.891C481.612 29.6895 481.854 29.5323 482.12 29.4296C482.386 29.3269 482.67 29.2809 482.955 29.2946V15.398ZM482.955 11.0853V4.3766H470.177V11.0853H482.955Z" fill="white"/>
<path d="M501.322 4.3766C501.313 4.9417 501.085 5.48127 500.686 5.8809C500.286 6.28053 499.747 6.50869 499.181 6.51694C498.613 6.50894 498.07 6.28185 497.666 5.88305C497.261 5.48424 497.026 4.94458 497.009 4.3766V2.20428C497.018 1.63369 497.25 1.08928 497.657 0.688767C498.063 0.288258 498.611 0.0637811 499.181 0.0638428H518.347V12.5548C518.347 14.0563 518.347 14.248 517.197 15.2703L511.16 20.5094C510.042 21.4997 509.946 21.5956 509.946 23.0651V31.435C509.996 31.7315 509.975 32.0357 509.883 32.3221C509.792 32.6086 509.633 32.869 509.421 33.0816C509.208 33.2942 508.948 33.4529 508.661 33.5444C508.375 33.6358 508.071 33.6574 507.774 33.6074C506.241 33.6074 505.634 32.8407 505.634 31.435V21.0525C505.634 19.6469 505.634 19.4872 506.752 18.5607L512.693 13.4173C514.131 12.1714 514.035 12.2034 514.035 10.2227V4.3766H501.322Z" fill="white"/>
<path d="M545.052 15.398H530.23C529.662 15.39 529.119 15.1629 528.714 14.7641C528.31 14.3653 528.075 13.8256 528.058 13.2576V2.20428C528.075 1.6363 528.31 1.09654 528.714 0.697736C529.119 0.29893 529.662 0.0718407 530.23 0.0638428H547.224C547.789 0.0720937 548.329 0.300254 548.728 0.699881C549.128 1.09951 549.356 1.63918 549.364 2.20428V31.435C549.373 31.72 549.324 32.0037 549.22 32.2691C549.115 32.5345 548.959 32.776 548.759 32.979C548.559 33.1821 548.319 33.3424 548.056 33.4504C547.792 33.5584 547.509 33.6118 547.224 33.6073H545.052C544.767 33.6118 544.484 33.5584 544.22 33.4504C543.956 33.3424 543.717 33.1821 543.517 32.979C543.317 32.776 543.16 32.5345 543.056 32.2691C542.952 32.0037 542.903 31.72 542.912 31.435C542.898 31.1503 542.944 30.8659 543.047 30.6C543.149 30.3341 543.307 30.0926 543.508 29.891C543.71 29.6895 543.951 29.5323 544.217 29.4296C544.483 29.3269 544.767 29.2809 545.052 29.2946V15.398ZM545.052 11.0853V4.3766H532.275V11.0853H545.052Z" fill="white"/>
<path d="M561.279 4.37657C560.974 4.41379 560.664 4.38575 560.37 4.29439C560.077 4.20303 559.806 4.05044 559.576 3.84661C559.346 3.64277 559.161 3.39237 559.035 3.112C558.909 2.83163 558.844 2.52762 558.844 2.22015C558.844 1.91267 558.909 1.60875 559.035 1.32839C559.161 1.04802 559.346 0.797616 559.576 0.593783C559.806 0.38995 560.077 0.237363 560.37 0.146002C560.664 0.0546404 560.974 0.026598 561.279 0.0638159H576.1C576.67 0.0507085 577.237 0.153263 577.766 0.365359C578.295 0.577454 578.776 0.894657 579.179 1.29777C579.582 1.70089 579.899 2.18156 580.111 2.71073C580.323 3.2399 580.426 3.80663 580.413 4.37657V12.6506C579.324 13.7715 578.715 15.2728 578.715 16.8356C578.715 18.3984 579.324 19.8996 580.413 21.0205V29.2946C580.426 29.8645 580.323 30.4312 580.111 30.9604C579.899 31.4896 579.582 31.9703 579.179 32.3734C578.776 32.7765 578.295 33.0937 577.766 33.3058C577.237 33.5179 576.67 33.6204 576.1 33.6073H561.279C560.974 33.6445 560.664 33.6165 560.37 33.5251C560.077 33.4338 559.806 33.2812 559.576 33.0774C559.346 32.8735 559.161 32.6231 559.035 32.3428C558.909 32.0624 558.844 31.7585 558.844 31.451C558.844 31.1435 558.909 30.8395 559.035 30.5591C559.161 30.2788 559.346 30.0284 559.576 29.8245C559.806 29.6207 560.077 29.4681 560.37 29.3768C560.664 29.2854 560.974 29.2574 561.279 29.2946H576.1V22.1387C576.1 19.7107 575.142 18.944 573.928 18.944H565.495C565.19 18.9813 564.88 18.9532 564.587 18.8618C564.293 18.7705 564.023 18.6179 563.792 18.4141C563.562 18.2102 563.378 17.9598 563.252 17.6795C563.125 17.3991 563.06 17.0951 563.06 16.7876C563.06 16.4801 563.125 16.1762 563.252 15.8958C563.378 15.6155 563.562 15.3651 563.792 15.1612C564.023 14.9574 564.293 14.8048 564.587 14.7135C564.88 14.6221 565.19 14.5941 565.495 14.6313H573.8C575.014 14.6313 575.973 13.8965 575.973 11.4367V4.37657H561.279Z" fill="white"/>
</svg>
