<svg width="142" height="96" viewBox="0 0 142 96" fill="none" xmlns="http://www.w3.org/2000/svg">
<path d="M36.3114 85.2146C35.4671 83.168 35.0338 80.9753 35.0361 78.7614L35.2335 76.9847H69.8972V95.6525H51.9076C49.6894 95.6525 47.493 95.215 45.444 94.3651C43.395 93.5151 41.5337 92.2695 39.9666 90.6994C38.3995 89.1292 37.1574 87.2654 36.3114 85.2146Z" fill="white" stroke="black" stroke-width="0.5"/>
<path d="M35.0039 51.1403H69.769V70.1913H35.0039V51.1403Z" fill="white" stroke="black" stroke-width="0.5"/>
<path d="M69.6735 18.9177H35.0361V17.1231C35.036 12.6698 36.7962 8.39706 39.9331 5.23633C43.0697 2.07582 47.3284 0.283476 51.7808 0.25H69.6735V18.9177Z" fill="white" stroke="black" stroke-width="0.5"/>
<path d="M76.3384 0.25H124.002C128.466 0.26678 132.741 2.05183 135.891 5.21424C139.042 8.37677 140.811 12.659 140.811 17.1231V18.9177H100.429H100.179V19.1677V95.5886H76.3384V0.25Z" fill="white" stroke="black" stroke-width="0.5"/>
<path d="M35.0039 25.4875H69.769V44.5386H35.0039V25.4875Z" fill="white" stroke="black" stroke-width="0.5"/>
<path d="M106.812 25.4875H140.874V44.5386H106.812V25.4875Z" fill="white" stroke="black" stroke-width="0.5"/>
<path d="M106.812 51.1403H140.874V70.1913H106.812V51.1403Z" fill="white" stroke="black" stroke-width="0.5"/>
<path d="M140.874 78.5877V78.5882C140.879 80.8066 140.445 83.0041 139.599 85.0548C138.753 87.1056 137.511 88.9694 135.944 90.5396C134.377 92.1097 132.516 93.3554 130.467 94.2054C128.418 95.0553 126.221 95.4928 124.003 95.4928H106.812V76.7931H140.874V78.5877Z" fill="white" stroke="black" stroke-width="0.5"/>
<path d="M15.8438 31.9781L0 47.8554L15.8438 63.7327V31.9781Z" fill="white"/>
</svg>
